<svg width="199" height="62" viewBox="0 0 199 62" fill="none" xmlns="http://www.w3.org/2000/svg">
<path fill-rule="evenodd" clip-rule="evenodd" d="M196.273 35.5096C195.119 37.6312 193.139 39.7611 190.291 41.8589C185.443 45.4298 178.333 48.7086 169.411 51.4882C151.586 57.0419 126.868 60.5 99.5 60.5C72.132 60.5 47.4145 57.0419 29.5891 51.4882C20.6674 48.7086 13.5566 45.4298 8.70882 41.8589C3.83105 38.2659 1.5 34.5788 1.5 31C1.5 27.4212 3.83105 23.7341 8.70882 20.1411C13.5566 16.5702 20.6674 13.2914 29.5891 10.5118C47.4145 4.95814 72.132 1.5 99.5 1.5C126.868 1.5 151.586 4.95814 169.411 10.5118C178.333 13.2914 185.443 16.5702 190.291 20.1411C193.521 22.5205 195.635 24.9412 196.694 27.3444C197.167 27.1966 197.671 27.0928 198.196 27.0401C191.955 11.7893 150.146 0 99.5 0C44.5477 0 0 13.8792 0 31C0 48.1208 44.5477 62 99.5 62C149.096 62 190.217 50.6946 197.762 35.9041C197.237 35.8215 196.738 35.6876 196.273 35.5096Z" fill="#BD7E69"/>
</svg>
