<svg width="153" height="8" viewBox="0 0 153 8" fill="none" xmlns="http://www.w3.org/2000/svg">
<path d="M152.354 4.35354C152.549 4.15828 152.549 3.8417 152.354 3.64643L149.172 0.464453C148.976 0.269191 148.66 0.269191 148.464 0.464453C148.269 0.659715 148.269 0.976298 148.464 1.17156L151.293 3.99999L148.464 6.82841C148.269 7.02368 148.269 7.34026 148.464 7.53552C148.66 7.73078 148.976 7.73078 149.172 7.53552L152.354 4.35354ZM4.37114e-08 4.5L1 4.5L1 3.5L-4.37114e-08 3.5L4.37114e-08 4.5ZM3 4.5L5 4.5L5 3.5L3 3.5L3 4.5ZM7 4.5L9 4.5L9 3.5L7 3.5L7 4.5ZM11 4.5L13 4.5L13 3.5L11 3.5L11 4.5ZM15 4.5L17 4.5L17 3.5L15 3.5L15 4.5ZM19 4.5L21 4.5L21 3.5L19 3.5L19 4.5ZM23 4.5L25 4.5L25 3.5L23 3.5L23 4.5ZM27 4.5L29 4.5L29 3.5L27 3.5L27 4.5ZM31 4.5L33 4.5L33 3.5L31 3.5L31 4.5ZM35 4.5L37 4.5L37 3.5L35 3.5L35 4.5ZM39 4.5L41 4.5L41 3.5L39 3.5L39 4.5ZM43 4.5L45 4.5L45 3.5L43 3.5L43 4.5ZM47 4.5L49 4.5L49 3.5L47 3.5L47 4.5ZM51 4.5L53 4.5L53 3.5L51 3.5L51 4.5ZM55 4.5L57 4.5L57 3.5L55 3.5L55 4.5ZM59 4.49999L61 4.49999L61 3.49999L59 3.49999L59 4.49999ZM63 4.49999L65 4.49999L65 3.49999L63 3.49999L63 4.49999ZM67 4.49999L69 4.49999L69 3.49999L67 3.49999L67 4.49999ZM71 4.49999L73 4.49999L73 3.49999L71 3.49999L71 4.49999ZM75 4.49999L77 4.49999L77 3.49999L75 3.49999L75 4.49999ZM79 4.49999L81 4.49999L81 3.49999L79 3.49999L79 4.49999ZM83 4.49999L85 4.49999L85 3.49999L83 3.49999L83 4.49999ZM87 4.49999L89 4.49999L89 3.49999L87 3.49999L87 4.49999ZM91 4.49999L93 4.49999L93 3.49999L91 3.49999L91 4.49999ZM95 4.49999L97 4.49999L97 3.49999L95 3.49999L95 4.49999ZM99 4.49999L101 4.49999L101 3.49999L99 3.49999L99 4.49999ZM103 4.49999L105 4.49999L105 3.49999L103 3.49999L103 4.49999ZM107 4.49999L109 4.49999L109 3.49999L107 3.49999L107 4.49999ZM111 4.49999L113 4.49999L113 3.49999L111 3.49999L111 4.49999ZM115 4.49999L117 4.49999L117 3.49999L115 3.49999L115 4.49999ZM119 4.49999L121 4.49999L121 3.49999L119 3.49999L119 4.49999ZM123 4.49999L125 4.49999L125 3.49999L123 3.49999L123 4.49999ZM127 4.49999L129 4.49999L129 3.49999L127 3.49999L127 4.49999ZM131 4.49999L133 4.49999L133 3.49999L131 3.49999L131 4.49999ZM135 4.49999L137 4.49999L137 3.49999L135 3.49999L135 4.49999ZM139 4.49999L141 4.49999L141 3.49999L139 3.49999L139 4.49999ZM143 4.49999L145 4.49999L145 3.49999L143 3.49999L143 4.49999ZM147 4.49999L149 4.49999L149 3.49999L147 3.49999L147 4.49999ZM151 4.49999L152 4.49999L152 3.49999L151 3.49999L151 4.49999Z" fill="white"/>
</svg>
